<svg xmlns="http://www.w3.org/2000/svg" xmlns:xlink="http://www.w3.org/1999/xlink" width="500" zoomAndPan="magnify" viewBox="0 0 375 374.999991" height="500" preserveAspectRatio="xMidYMid meet" version="1.2"><defs><clipPath id="ed9a64e586"><path d="M 39 20 L 245.28125 20 L 245.28125 226.957031 L 39 226.957031 Z M 39 20 "/></clipPath><clipPath id="4ad737b864"><path d="M 142.238281 131.269531 L 348.324219 131.269531 L 348.324219 337.351562 L 142.238281 337.351562 Z M 142.238281 131.269531 "/></clipPath><clipPath id="27c098b7ab"><path d="M 142.238281 20 L 348.324219 20 L 348.324219 226.957031 L 142.238281 226.957031 Z M 142.238281 20 "/></clipPath></defs><g id="0450479290"><g clip-rule="nonzero" clip-path="url(#ed9a64e586)"><path style=" stroke:none;fill-rule:nonzero;fill:#000000;fill-opacity:1;" d="M 48.601562 20.875 L 245.28125 20.875 L 245.28125 39.882812 L 58.203125 39.882812 L 58.203125 226.957031 L 39.195312 226.957031 L 39.195312 30.277344 C 39.195312 25.074219 43.398438 20.875 48.601562 20.875 Z M 48.601562 20.875 "/></g><g style="fill:#000000;fill-opacity:1;"><g transform="translate(26.672533, 328.363658)"><path style="stroke:none" d="M 30.90625 -60.375 L 35.4375 -60.375 C 37.257812 -60.375 38.769531 -60.625 39.96875 -61.125 C 41.164062 -61.632812 42.191406 -62.4375 43.046875 -63.53125 L 71.734375 -99.828125 C 72.929688 -101.367188 74.1875 -102.4375 75.5 -103.03125 C 76.820312 -103.632812 78.488281 -103.9375 80.5 -103.9375 L 97.171875 -103.9375 L 62.171875 -60.734375 C 60.109375 -58.097656 57.976562 -56.226562 55.78125 -55.125 C 57.351562 -54.550781 58.773438 -53.75 60.046875 -52.71875 C 61.316406 -51.6875 62.53125 -50.332031 63.6875 -48.65625 L 99.765625 0 L 82.734375 0 C 80.429688 0 78.71875 -0.320312 77.59375 -0.96875 C 76.46875 -1.613281 75.519531 -2.5625 74.75 -3.8125 L 45.359375 -42.1875 C 44.441406 -43.476562 43.382812 -44.390625 42.1875 -44.921875 C 40.988281 -45.453125 39.265625 -45.71875 37.015625 -45.71875 L 30.90625 -45.71875 L 30.90625 0 L 11.578125 0 L 11.578125 -103.9375 L 30.90625 -103.9375 Z M 30.90625 -60.375 "/></g></g><g style="fill:#000000;fill-opacity:1;"><g transform="translate(85.236971, 356.341676)"><path style="stroke:none" d="M 51.171875 -36.9375 C 51.171875 -31.09375 50.453125 -25.820312 49.015625 -21.125 C 47.578125 -16.4375 45.429688 -12.4375 42.578125 -9.125 C 39.734375 -5.820312 36.175781 -3.28125 31.90625 -1.5 C 27.644531 0.269531 22.6875 1.15625 17.03125 1.15625 C 14.445312 1.15625 11.90625 1 9.40625 0.6875 C 6.914062 0.375 4.304688 -0.117188 1.578125 -0.796875 C 1.722656 -2.710938 1.890625 -4.628906 2.078125 -6.546875 C 2.273438 -8.460938 2.445312 -10.378906 2.59375 -12.296875 C 2.726562 -13.347656 3.144531 -14.195312 3.84375 -14.84375 C 4.539062 -15.488281 5.535156 -15.8125 6.828125 -15.8125 C 7.640625 -15.8125 8.703125 -15.644531 10.015625 -15.3125 C 11.335938 -14.976562 13.003906 -14.8125 15.015625 -14.8125 C 17.753906 -14.8125 20.175781 -15.203125 22.28125 -15.984375 C 24.382812 -16.773438 26.144531 -18.035156 27.5625 -19.765625 C 28.976562 -21.492188 30.046875 -23.734375 30.765625 -26.484375 C 31.484375 -29.242188 31.84375 -32.585938 31.84375 -36.515625 L 31.84375 -103.9375 L 51.171875 -103.9375 Z M 51.171875 -36.9375 "/></g></g><g clip-rule="nonzero" clip-path="url(#4ad737b864)"><path style=" stroke:none;fill-rule:nonzero;fill:#000000;fill-opacity:1;" d="M 338.917969 337.351562 L 142.238281 337.351562 L 142.238281 318.347656 L 329.316406 318.347656 L 329.316406 131.269531 L 348.324219 131.269531 L 348.324219 327.949219 C 348.324219 333.152344 344.121094 337.351562 338.917969 337.351562 Z M 338.917969 337.351562 "/></g><g clip-rule="nonzero" clip-path="url(#27c098b7ab)"><path style=" stroke:none;fill-rule:nonzero;fill:#000000;fill-opacity:1;" d="M 338.917969 20.875 L 142.238281 20.875 L 142.238281 39.882812 L 329.316406 39.882812 L 329.316406 226.957031 L 348.324219 226.957031 L 348.324219 30.277344 C 348.324219 25.074219 344.121094 20.875 338.917969 20.875 Z M 338.917969 20.875 "/></g></g></svg>